<?xml version="1.0" encoding="UTF-8"?>
<svg id="Layer_1" data-name="Layer 1" xmlns="http://www.w3.org/2000/svg" viewBox="0 0 489 489">
  <defs>
    <style>
      .cls-1 {
        fill: none;
      }

      .cls-2 {
        fill: #fff;
        stroke: #000;
      }

      .cls-2, .cls-3 {
        stroke-miterlimit: 10;
      }

      .cls-3 {
        stroke: #fff;
      }
    </style>
  </defs>
  <rect class="cls-1" width="489" height="489"/>
  <ellipse class="cls-2" cx="244.5" cy="284.25" rx="188" ry="185.25"/>
  <g id="NewGroupe0">
    <g>
      <path class="cls-2" d="M197.75,138.5c18.41-3.87,35.73,10.12,35.73,28.93v84.67c0,16.33-13.24,29.57-29.57,29.57h-74.2c-18.01,0-31.83-15.97-29.27-33.79,11.13-77.55,61.82-101.91,97.31-109.37h0ZM236.11,410.83c0,18.81-17.32,32.8-35.73,28.92-35.49-7.45-86.17-31.82-97.31-109.37-2.56-17.83,11.26-33.79,29.27-33.79h74.2c16.33,0,29.57,13.24,29.57,29.57v84.67h0ZM260.18,326.16c0-16.34,13.24-29.57,29.57-29.57h74.2c18.01,0,31.83,15.96,29.27,33.79-11.12,77.55-61.81,101.91-97.3,109.37-18.41,3.87-35.73-10.11-35.73-28.92v-84.67h0ZM262.94,167.43c0-18.81,17.32-32.8,35.74-28.93,35.49,7.46,86.17,31.83,97.3,109.37,2.56,17.82-11.26,33.79-29.28,33.79h-74.19c-16.34,0-29.57-13.24-29.57-29.57v-84.67h0ZM244.5,469.5c103.59,0,187.57-82.69,187.57-184.69,0-85.51-59.03-157.45-139.16-178.46-4.5-19.93-6.55-57.3,33.95-75.3,0,0-38.4-12.56-64.09,23.15-7.21-27.77-18.27-39.7-18.27-39.7,0,0-10.81,6.52-17.57,40.69-25.69-36.93-64.79-24.14-64.79-24.14,40.49,18,38.44,55.37,33.95,75.3-80.13,21.01-139.15,92.95-139.15,178.46,0,102,83.97,184.69,187.56,184.69h0Z"/>
      <path class="cls-3" d="M207.57,259.35c-6.33,0-11.46,4.2-11.46,9.38s5.13,9.37,11.46,9.37,11.46-4.2,11.46-9.37-5.13-9.38-11.46-9.38h0Z"/>
      <path class="cls-3" d="M176.97,259.35c-6.33,0-11.46,4.2-11.46,9.38s5.13,9.37,11.46,9.37,11.46-4.2,11.46-9.37-5.13-9.38-11.46-9.38h0Z"/>
      <path class="cls-3" d="M145.95,259.35c-6.33,0-11.46,4.2-11.46,9.38s5.13,9.37,11.46,9.37,11.46-4.2,11.46-9.37-5.13-9.38-11.46-9.38h0Z"/>
      <path class="cls-3" d="M118.84,268.73c6.33,0,11.46-4.2,11.46-9.38s-5.13-9.37-11.46-9.37-11.46,4.2-11.46,9.37,5.13,9.38,11.46,9.38h0Z"/>
      <path class="cls-3" d="M118.84,244.69c6.33,0,11.46-4.2,11.46-9.37s-5.13-9.38-11.46-9.38-11.46,4.2-11.46,9.38,5.13,9.37,11.46,9.37h0Z"/>
      <path class="cls-3" d="M127.15,219.14c6.33,0,11.46-4.2,11.46-9.38s-5.13-9.37-11.46-9.37-11.46,4.2-11.46,9.37,5.13,9.38,11.46,9.38h0Z"/>
      <path class="cls-3" d="M141.13,193.59c6.33,0,11.46-4.2,11.46-9.37s-5.13-9.38-11.46-9.38-11.46,4.2-11.46,9.38,5.13,9.37,11.46,9.37h0Z"/>
      <path class="cls-3" d="M164.05,176.11c6.33,0,11.46-4.2,11.46-9.38s-5.13-9.37-11.46-9.37-11.46,4.2-11.46,9.37,5.13,9.38,11.46,9.38h0Z"/>
      <path class="cls-3" d="M190.27,163.87c6.33,0,11.46-4.2,11.46-9.37s-5.13-9.38-11.46-9.38-11.46,4.2-11.46,9.38,5.13,9.37,11.46,9.37h0Z"/>
      <path class="cls-3" d="M219.03,173.24c6.33,0,11.46-4.2,11.46-9.37s-5.13-9.37-11.46-9.37-11.46,4.2-11.46,9.37,5.13,9.37,11.46,9.37h0Z"/>
      <path class="cls-3" d="M219.03,198.59c6.33,0,11.46-4.2,11.46-9.37s-5.13-9.38-11.46-9.38-11.46,4.2-11.46,9.38,5.13,9.37,11.46,9.37h0Z"/>
      <path class="cls-3" d="M219.03,223.95c6.33,0,11.46-4.2,11.46-9.38s-5.13-9.37-11.46-9.37-11.46,4.2-11.46,9.37,5.13,9.38,11.46,9.38h0Z"/>
      <path class="cls-3" d="M188.43,247.59c0,5.18,5.13,9.38,11.46,9.38s11.46-4.2,11.46-9.38-5.13-9.37-11.46-9.37-11.46,4.2-11.46,9.37h0Z"/>
      <path class="cls-3" d="M174.67,249.97c0-5.18-5.13-9.37-11.46-9.37s-11.46,4.2-11.46,9.37,5.13,9.37,11.46,9.37,11.46-4.2,11.46-9.37h0Z"/>
      <path class="cls-3" d="M134.49,235.31c0,5.18,5.13,9.37,11.46,9.37s11.46-4.2,11.46-9.37-5.13-9.38-11.46-9.38-11.46,4.2-11.46,9.38h0Z"/>
      <path class="cls-3" d="M171.03,228.84c0,5.18,5.13,9.38,11.46,9.38s11.46-4.2,11.46-9.38-5.13-9.37-11.46-9.37-11.46,4.2-11.46,9.37h0Z"/>
      <path class="cls-3" d="M165.51,184.21c-6.33,0-11.46,4.2-11.46,9.37s5.13,9.38,11.46,9.38,11.46-4.2,11.46-9.38-5.13-9.37-11.46-9.37h0Z"/>
      <path class="cls-3" d="M202.61,207.71c0-5.18-5.13-9.37-11.46-9.37s-11.46,4.2-11.46,9.37,5.13,9.37,11.46,9.37,11.46-4.2,11.46-9.37h0Z"/>
      <path class="cls-3" d="M191.54,171.85c-6.33,0-11.46,4.2-11.46,9.38s5.13,9.37,11.46,9.37,11.46-4.2,11.46-9.37-5.13-9.38-11.46-9.38h0Z"/>
      <path class="cls-3" d="M214.85,230.25c-4.06,3.21-4.18,9.84-.26,14.8,3.93,4.97,10.4,6.39,14.46,3.19,4.07-3.21,4.18-9.84.26-14.81-3.93-4.96-10.4-6.39-14.46-3.18h0Z"/>
      <path class="cls-3" d="M169.95,215.11c0-5.18-5.13-9.37-11.46-9.37s-11.46,4.2-11.46,9.37,5.13,9.38,11.46,9.38,11.46-4.2,11.46-9.38h0Z"/>
      <path class="cls-3" d="M289.72,261c-6.33,0-11.46,4.2-11.46,9.37s5.13,9.37,11.46,9.37,11.46-4.2,11.46-9.37-5.13-9.37-11.46-9.37h0Z"/>
      <path class="cls-3" d="M320.32,261c-6.33,0-11.46,4.2-11.46,9.37s5.13,9.37,11.46,9.37,11.46-4.2,11.46-9.37-5.13-9.37-11.46-9.37h0Z"/>
      <path class="cls-3" d="M351.35,261c-6.33,0-11.46,4.2-11.46,9.37s5.13,9.37,11.46,9.37,11.46-4.2,11.46-9.37-5.13-9.37-11.46-9.37h0Z"/>
      <path class="cls-3" d="M378.45,251.62c-6.33,0-11.46,4.2-11.46,9.38s5.13,9.37,11.46,9.37,11.46-4.2,11.46-9.37-5.13-9.38-11.46-9.38h0Z"/>
      <path class="cls-3" d="M366.99,236.96c0,5.18,5.13,9.37,11.46,9.37s11.46-4.2,11.46-9.37-5.13-9.38-11.46-9.38-11.46,4.2-11.46,9.38h0Z"/>
      <path class="cls-3" d="M358.68,211.4c0,5.18,5.13,9.38,11.46,9.38s11.46-4.2,11.46-9.38-5.13-9.37-11.46-9.37-11.46,4.2-11.46,9.37h0Z"/>
      <path class="cls-3" d="M356.16,195.23c6.33,0,11.46-4.2,11.46-9.37s-5.13-9.37-11.46-9.37-11.46,4.2-11.46,9.37,5.13,9.37,11.46,9.37h0Z"/>
      <path class="cls-3" d="M333.23,177.75c6.33,0,11.47-4.2,11.47-9.38s-5.13-9.37-11.47-9.37-11.46,4.2-11.46,9.37,5.13,9.38,11.46,9.38h0Z"/>
      <path class="cls-3" d="M307.01,165.51c6.33,0,11.47-4.2,11.47-9.37s-5.13-9.38-11.47-9.38-11.46,4.2-11.46,9.38,5.13,9.37,11.46,9.37h0Z"/>
      <path class="cls-3" d="M278.26,174.9c6.33,0,11.46-4.2,11.46-9.38s-5.13-9.37-11.46-9.37-11.46,4.2-11.46,9.37,5.13,9.38,11.46,9.38h0Z"/>
      <path class="cls-3" d="M278.26,200.24c6.33,0,11.46-4.2,11.46-9.37s-5.13-9.38-11.46-9.38-11.46,4.2-11.46,9.38,5.13,9.37,11.46,9.37h0Z"/>
      <path class="cls-3" d="M278.26,225.59c6.33,0,11.46-4.2,11.46-9.38s-5.13-9.37-11.46-9.37-11.46,4.2-11.46,9.37,5.13,9.38,11.46,9.38h0Z"/>
      <path class="cls-3" d="M285.94,249.24c0,5.18,5.13,9.38,11.46,9.38s11.46-4.2,11.46-9.38-5.13-9.37-11.46-9.37-11.46,4.2-11.46,9.37h0Z"/>
      <path class="cls-3" d="M345.55,251.62c0-5.18-5.13-9.37-11.46-9.37s-11.46,4.2-11.46,9.37,5.13,9.38,11.46,9.38,11.46-4.2,11.46-9.38h0Z"/>
      <path class="cls-3" d="M351.35,227.58c-6.33,0-11.46,4.2-11.46,9.38s5.13,9.37,11.46,9.37,11.46-4.2,11.46-9.37-5.13-9.38-11.46-9.38h0Z"/>
      <path class="cls-3" d="M314.81,239.86c6.33,0,11.46-4.2,11.46-9.37s-5.13-9.38-11.46-9.38-11.46,4.2-11.46,9.38,5.13,9.37,11.46,9.37h0Z"/>
      <path class="cls-3" d="M331.78,204.61c6.33,0,11.46-4.2,11.46-9.38s-5.13-9.37-11.46-9.37-11.46,4.2-11.46,9.37,5.13,9.38,11.46,9.38h0Z"/>
      <path class="cls-3" d="M317.6,209.35c0-5.18-5.13-9.37-11.46-9.37s-11.46,4.2-11.46,9.37,5.13,9.38,11.46,9.38,11.46-4.2,11.46-9.38h0Z"/>
      <path class="cls-3" d="M305.75,192.26c6.33,0,11.46-4.2,11.46-9.37s-5.13-9.38-11.46-9.38-11.46,4.2-11.46,9.38,5.13,9.37,11.46,9.37h0Z"/>
      <path class="cls-3" d="M282.7,248.67c3.93-4.96,3.81-11.59-.26-14.8s-10.53-1.78-14.46,3.18c-3.92,4.97-3.8,11.6.26,14.81,4.06,3.21,10.54,1.78,14.46-3.19h0Z"/>
      <path class="cls-3" d="M350.26,216.77c0-5.18-5.13-9.38-11.46-9.38s-11.47,4.2-11.47,9.38,5.13,9.37,11.47,9.37,11.46-4.2,11.46-9.37h0Z"/>
      <path class="cls-3" d="M287.58,318.52c6.33,0,11.46-4.2,11.46-9.37s-5.13-9.38-11.46-9.38-11.46,4.2-11.46,9.38,5.13,9.37,11.46,9.37h0Z"/>
      <path class="cls-3" d="M318.18,318.52c6.33,0,11.46-4.2,11.46-9.37s-5.13-9.38-11.46-9.38-11.46,4.2-11.46,9.38,5.13,9.37,11.46,9.37h0Z"/>
      <path class="cls-3" d="M349.2,318.52c6.33,0,11.46-4.2,11.46-9.37s-5.13-9.38-11.46-9.38-11.46,4.2-11.46,9.38,5.13,9.37,11.46,9.37h0Z"/>
      <path class="cls-3" d="M376.3,327.9c6.33,0,11.46-4.2,11.46-9.37s-5.13-9.37-11.46-9.37-11.46,4.2-11.46,9.37,5.13,9.37,11.46,9.37h0Z"/>
      <path class="cls-3" d="M376.3,351.94c6.33,0,11.46-4.2,11.46-9.37s-5.13-9.38-11.46-9.38-11.46,4.2-11.46,9.38,5.13,9.37,11.46,9.37h0Z"/>
      <path class="cls-3" d="M356.54,368.11c0,5.18,5.13,9.37,11.46,9.37s11.46-4.2,11.46-9.37-5.13-9.37-11.46-9.37-11.46,4.2-11.46,9.37h0Z"/>
      <path class="cls-3" d="M354.02,384.28c-6.33,0-11.46,4.2-11.46,9.37s5.13,9.38,11.46,9.38,11.46-4.2,11.46-9.38-5.13-9.37-11.46-9.37h0Z"/>
      <path class="cls-3" d="M331.1,401.77c-6.33,0-11.46,4.2-11.46,9.37s5.13,9.38,11.46,9.38,11.46-4.2,11.46-9.38-5.13-9.37-11.46-9.37h0Z"/>
      <path class="cls-3" d="M304.87,414c-6.33,0-11.46,4.2-11.46,9.38s5.13,9.37,11.46,9.37,11.46-4.2,11.46-9.37-5.13-9.38-11.46-9.38h0Z"/>
      <path class="cls-3" d="M287.58,414c0-5.18-5.13-9.37-11.46-9.37s-11.46,4.2-11.46,9.37,5.13,9.38,11.46,9.38,11.46-4.2,11.46-9.38h0Z"/>
      <path class="cls-3" d="M276.12,379.27c-6.33,0-11.46,4.2-11.46,9.38s5.13,9.37,11.46,9.37,11.46-4.2,11.46-9.37-5.13-9.38-11.46-9.38h0Z"/>
      <path class="cls-3" d="M276.12,353.93c-6.33,0-11.46,4.2-11.46,9.37s5.13,9.37,11.46,9.37,11.46-4.2,11.46-9.37-5.13-9.37-11.46-9.37h0Z"/>
      <path class="cls-3" d="M283.8,330.28c0,5.18,5.13,9.37,11.46,9.37s11.46-4.2,11.46-9.37-5.13-9.37-11.46-9.37-11.46,4.2-11.46,9.37h0Z"/>
      <path class="cls-3" d="M320.48,327.9c0,5.18,5.13,9.38,11.46,9.38s11.46-4.2,11.46-9.38-5.13-9.37-11.46-9.37-11.46,4.2-11.46,9.37h0Z"/>
      <path class="cls-3" d="M360.66,342.56c0-5.18-5.13-9.38-11.46-9.38s-11.46,4.2-11.46,9.38,5.13,9.37,11.46,9.37,11.46-4.2,11.46-9.37h0Z"/>
      <path class="cls-3" d="M324.12,349.03c0-5.18-5.13-9.38-11.46-9.38s-11.46,4.2-11.46,9.38,5.13,9.37,11.46,9.37,11.46-4.2,11.46-9.37h0Z"/>
      <path class="cls-3" d="M329.63,393.66c6.33,0,11.46-4.2,11.46-9.37s-5.13-9.37-11.46-9.37-11.46,4.2-11.46,9.37,5.13,9.37,11.46,9.37h0Z"/>
      <path class="cls-3" d="M292.54,370.16c0,5.18,5.13,9.38,11.46,9.38s11.46-4.2,11.46-9.38-5.13-9.37-11.46-9.37-11.46,4.2-11.46,9.37h0Z"/>
      <path class="cls-3" d="M303.61,406.02c6.33,0,11.46-4.2,11.46-9.37s-5.13-9.38-11.46-9.38-11.46,4.2-11.46,9.38,5.13,9.37,11.46,9.37h0Z"/>
      <path class="cls-3" d="M280.3,344.34c4.07-3.21,4.18-9.83.26-14.8-3.93-4.97-10.4-6.39-14.46-3.18-4.06,3.21-4.18,9.83-.26,14.8,3.93,4.97,10.4,6.39,14.46,3.18h0Z"/>
      <path class="cls-3" d="M325.2,362.75c0,5.18,5.13,9.37,11.46,9.37s11.46-4.2,11.46-9.37-5.13-9.38-11.46-9.38-11.46,4.2-11.46,9.38h0Z"/>
      <path class="cls-3" d="M208.71,320.12c6.33,0,11.46-4.2,11.46-9.37s-5.13-9.38-11.46-9.38-11.46,4.2-11.46,9.38,5.13,9.37,11.46,9.37h0Z"/>
      <path class="cls-3" d="M178.11,320.12c6.33,0,11.46-4.2,11.46-9.37s-5.13-9.38-11.46-9.38-11.46,4.2-11.46,9.38,5.13,9.37,11.46,9.37h0Z"/>
      <path class="cls-3" d="M147.09,320.12c6.33,0,11.46-4.2,11.46-9.37s-5.13-9.38-11.46-9.38-11.46,4.2-11.46,9.38,5.13,9.37,11.46,9.37h0Z"/>
      <path class="cls-3" d="M119.99,329.5c6.33,0,11.46-4.2,11.46-9.38s-5.13-9.37-11.46-9.37-11.46,4.2-11.46,9.37,5.13,9.38,11.46,9.38h0Z"/>
      <path class="cls-3" d="M131.45,344.16c0-5.18-5.13-9.38-11.46-9.38s-11.46,4.2-11.46,9.38,5.13,9.37,11.46,9.37,11.46-4.2,11.46-9.37h0Z"/>
      <path class="cls-3" d="M139.75,369.7c0-5.18-5.13-9.37-11.46-9.37s-11.46,4.2-11.46,9.37,5.13,9.38,11.46,9.38,11.46-4.2,11.46-9.38h0Z"/>
      <path class="cls-3" d="M142.28,385.88c-6.33,0-11.46,4.2-11.46,9.38s5.13,9.37,11.46,9.37,11.46-4.2,11.46-9.37-5.13-9.38-11.46-9.38h0Z"/>
      <path class="cls-3" d="M165.2,403.36c-6.33,0-11.46,4.2-11.46,9.37s5.13,9.38,11.46,9.38,11.46-4.2,11.46-9.38-5.13-9.37-11.46-9.37h0Z"/>
      <path class="cls-3" d="M191.42,415.6c-6.33,0-11.46,4.2-11.46,9.37s5.13,9.37,11.46,9.37,11.46-4.2,11.46-9.37-5.13-9.37-11.46-9.37h0Z"/>
      <path class="cls-3" d="M220.17,406.22c-6.33,0-11.46,4.2-11.46,9.38s5.13,9.37,11.46,9.37,11.46-4.2,11.46-9.37-5.13-9.38-11.46-9.38h0Z"/>
      <path class="cls-3" d="M220.17,380.87c-6.33,0-11.46,4.2-11.46,9.38s5.13,9.37,11.46,9.37,11.46-4.2,11.46-9.37-5.13-9.38-11.46-9.38h0Z"/>
      <path class="cls-3" d="M220.17,355.52c-6.33,0-11.46,4.2-11.46,9.37s5.13,9.38,11.46,9.38,11.46-4.2,11.46-9.38-5.13-9.37-11.46-9.37h0Z"/>
      <path class="cls-3" d="M212.49,331.87c0-5.18-5.13-9.37-11.46-9.37s-11.46,4.2-11.46,9.37,5.13,9.38,11.46,9.38,11.46-4.2,11.46-9.38h0Z"/>
      <path class="cls-3" d="M152.89,329.5c0,5.18,5.13,9.37,11.46,9.37s11.46-4.2,11.46-9.37-5.13-9.38-11.46-9.38-11.46,4.2-11.46,9.38h0Z"/>
      <path class="cls-3" d="M147.09,353.53c6.33,0,11.46-4.2,11.46-9.37s-5.13-9.38-11.46-9.38-11.46,4.2-11.46,9.38,5.13,9.37,11.46,9.37h0Z"/>
      <path class="cls-3" d="M183.63,341.25c-6.33,0-11.46,4.2-11.46,9.37s5.13,9.37,11.46,9.37,11.46-4.2,11.46-9.37-5.13-9.37-11.46-9.37h0Z"/>
      <path class="cls-3" d="M166.65,376.5c-6.33,0-11.46,4.2-11.46,9.37s5.13,9.38,11.46,9.38,11.46-4.2,11.46-9.38-5.13-9.37-11.46-9.37h0Z"/>
      <path class="cls-3" d="M180.84,371.76c0,5.18,5.13,9.37,11.46,9.37s11.46-4.2,11.46-9.37-5.13-9.38-11.46-9.38-11.46,4.2-11.46,9.38h0Z"/>
      <path class="cls-3" d="M192.68,388.86c-6.33,0-11.46,4.2-11.46,9.37s5.13,9.37,11.46,9.37,11.46-4.2,11.46-9.37-5.13-9.37-11.46-9.37h0Z"/>
      <path class="cls-3" d="M215.74,333.1c-3.93,4.97-3.81,11.6.26,14.81,4.06,3.21,10.54,1.78,14.46-3.19,3.92-4.96,3.81-11.59-.26-14.8-4.06-3.21-10.54-1.78-14.46,3.18h0Z"/>
      <path class="cls-3" d="M148.18,364.35c0,5.18,5.13,9.38,11.46,9.38s11.46-4.2,11.46-9.38-5.13-9.37-11.46-9.37-11.46,4.2-11.46,9.37h0Z"/>
    </g>
  </g>
</svg>