<?xml version="1.0" encoding="UTF-8"?>
<svg id="Layer_1" data-name="Layer 1" xmlns="http://www.w3.org/2000/svg" viewBox="0 0 375.13 455">
  <g id="NewGroupe0">
    <g>
      <path d="M140.82,124c18.41-3.87,35.73,10.12,35.73,28.93v84.67c0,16.33-13.24,29.57-29.57,29.57h-74.2c-18.01,0-31.83-15.97-29.27-33.79,11.13-77.55,61.82-101.91,97.31-109.37h0ZM179.18,396.33c0,18.81-17.32,32.8-35.73,28.92-35.49-7.45-86.17-31.82-97.31-109.37-2.56-17.83,11.26-33.79,29.27-33.79h74.2c16.33,0,29.57,13.24,29.57,29.57v84.67h0ZM203.24,311.66c0-16.34,13.24-29.57,29.57-29.57h74.2c18.01,0,31.83,15.96,29.27,33.79-11.12,77.55-61.81,101.91-97.3,109.37-18.41,3.87-35.73-10.11-35.73-28.92v-84.67h0ZM206,152.93c0-18.81,17.32-32.8,35.74-28.93,35.49,7.46,86.17,31.83,97.3,109.37,2.56,17.82-11.26,33.79-29.28,33.79h-74.19c-16.34,0-29.57-13.24-29.57-29.57v-84.67h0ZM187.56,455c103.59,0,187.57-82.69,187.57-184.69,0-85.51-59.03-157.45-139.16-178.46-4.5-19.93-6.55-57.3,33.95-75.3,0,0-38.4-12.56-64.09,23.15C198.62,11.93,187.56,0,187.56,0c0,0-10.81,6.52-17.57,40.69C144.31,3.76,105.21,16.55,105.21,16.55c40.49,18,38.44,55.37,33.95,75.3C59.03,112.86,0,184.8,0,270.31c0,102,83.97,184.69,187.56,184.69h0Z"/>
      <path d="M150.64,244.85c-6.33,0-11.46,4.2-11.46,9.38s5.13,9.37,11.46,9.37,11.46-4.2,11.46-9.37-5.13-9.38-11.46-9.38h0Z"/>
      <path d="M120.04,244.85c-6.33,0-11.46,4.2-11.46,9.38s5.13,9.37,11.46,9.37,11.46-4.2,11.46-9.37-5.13-9.38-11.46-9.38h0Z"/>
      <path d="M89.01,244.85c-6.33,0-11.46,4.2-11.46,9.38s5.13,9.37,11.46,9.37,11.46-4.2,11.46-9.37-5.13-9.38-11.46-9.38h0Z"/>
      <path d="M61.91,254.23c6.33,0,11.46-4.2,11.46-9.38s-5.13-9.37-11.46-9.37-11.46,4.2-11.46,9.37,5.13,9.38,11.46,9.38h0Z"/>
      <path d="M61.91,230.19c6.33,0,11.46-4.2,11.46-9.37s-5.13-9.38-11.46-9.38-11.46,4.2-11.46,9.38,5.13,9.37,11.46,9.37h0Z"/>
      <path d="M70.22,204.64c6.33,0,11.46-4.2,11.46-9.38s-5.13-9.37-11.46-9.37-11.46,4.2-11.46,9.37,5.13,9.38,11.46,9.38h0Z"/>
      <path d="M84.2,179.09c6.33,0,11.46-4.2,11.46-9.37s-5.13-9.38-11.46-9.38-11.46,4.2-11.46,9.38,5.13,9.37,11.46,9.37h0Z"/>
      <path d="M107.12,161.61c6.33,0,11.46-4.2,11.46-9.38s-5.13-9.37-11.46-9.37-11.46,4.2-11.46,9.37,5.13,9.38,11.46,9.38h0Z"/>
      <path d="M133.34,149.37c6.33,0,11.46-4.2,11.46-9.37s-5.13-9.38-11.46-9.38-11.46,4.2-11.46,9.38,5.13,9.37,11.46,9.37h0Z"/>
      <path d="M162.09,158.74c6.33,0,11.46-4.2,11.46-9.37s-5.13-9.37-11.46-9.37-11.46,4.2-11.46,9.37,5.13,9.37,11.46,9.37h0Z"/>
      <path d="M162.09,184.09c6.33,0,11.46-4.2,11.46-9.37s-5.13-9.38-11.46-9.38-11.46,4.2-11.46,9.38,5.13,9.37,11.46,9.37h0Z"/>
      <path d="M162.09,209.45c6.33,0,11.46-4.2,11.46-9.38s-5.13-9.37-11.46-9.37-11.46,4.2-11.46,9.37,5.13,9.38,11.46,9.38h0Z"/>
      <path d="M131.5,233.09c0,5.18,5.13,9.38,11.46,9.38s11.46-4.2,11.46-9.38-5.13-9.37-11.46-9.37-11.46,4.2-11.46,9.37h0Z"/>
      <path d="M117.73,235.47c0-5.18-5.13-9.37-11.46-9.37s-11.46,4.2-11.46,9.37,5.13,9.37,11.46,9.37,11.46-4.2,11.46-9.37h0Z"/>
      <path d="M77.55,220.81c0,5.18,5.13,9.37,11.46,9.37s11.46-4.2,11.46-9.37-5.13-9.38-11.46-9.38-11.46,4.2-11.46,9.38h0Z"/>
      <path d="M114.09,214.34c0,5.18,5.13,9.38,11.46,9.38s11.46-4.2,11.46-9.38-5.13-9.37-11.46-9.37-11.46,4.2-11.46,9.37h0Z"/>
      <path d="M108.58,169.71c-6.33,0-11.46,4.2-11.46,9.37s5.13,9.38,11.46,9.38,11.46-4.2,11.46-9.38-5.13-9.37-11.46-9.37h0Z"/>
      <path d="M145.68,193.21c0-5.18-5.13-9.37-11.46-9.37s-11.46,4.2-11.46,9.37,5.13,9.37,11.46,9.37,11.46-4.2,11.46-9.37h0Z"/>
      <path d="M134.61,157.35c-6.33,0-11.46,4.2-11.46,9.38s5.13,9.37,11.46,9.37,11.46-4.2,11.46-9.37-5.13-9.38-11.46-9.38h0Z"/>
      <path d="M157.92,215.75c-4.06,3.21-4.18,9.84-.26,14.8,3.93,4.97,10.4,6.39,14.46,3.19,4.07-3.21,4.18-9.84.26-14.81-3.93-4.96-10.4-6.39-14.46-3.18h0Z"/>
      <path d="M113.02,200.61c0-5.18-5.13-9.37-11.46-9.37s-11.46,4.2-11.46,9.37,5.13,9.38,11.46,9.38,11.46-4.2,11.46-9.38h0Z"/>
      <path d="M232.79,246.5c-6.33,0-11.46,4.2-11.46,9.37s5.13,9.37,11.46,9.37,11.46-4.2,11.46-9.37-5.13-9.37-11.46-9.37h0Z"/>
      <path d="M263.39,246.5c-6.33,0-11.46,4.2-11.46,9.37s5.13,9.37,11.46,9.37,11.46-4.2,11.46-9.37-5.13-9.37-11.46-9.37h0Z"/>
      <path d="M294.41,246.5c-6.33,0-11.46,4.2-11.46,9.37s5.13,9.37,11.46,9.37,11.46-4.2,11.46-9.37-5.13-9.37-11.46-9.37h0Z"/>
      <path d="M321.51,237.12c-6.33,0-11.46,4.2-11.46,9.38s5.13,9.37,11.46,9.37,11.46-4.2,11.46-9.37-5.13-9.38-11.46-9.38h0Z"/>
      <path d="M310.06,222.46c0,5.18,5.13,9.37,11.46,9.37s11.46-4.2,11.46-9.37-5.13-9.38-11.46-9.38-11.46,4.2-11.46,9.38h0Z"/>
      <path d="M301.75,196.9c0,5.18,5.13,9.38,11.46,9.38s11.46-4.2,11.46-9.38-5.13-9.37-11.46-9.37-11.46,4.2-11.46,9.37h0Z"/>
      <path d="M299.23,180.73c6.33,0,11.46-4.2,11.46-9.37s-5.13-9.37-11.46-9.37-11.46,4.2-11.46,9.37,5.13,9.37,11.46,9.37h0Z"/>
      <path d="M276.3,163.25c6.33,0,11.47-4.2,11.47-9.38s-5.13-9.37-11.47-9.37-11.46,4.2-11.46,9.37,5.13,9.38,11.46,9.38h0Z"/>
      <path d="M250.08,151.01c6.33,0,11.47-4.2,11.47-9.37s-5.13-9.38-11.47-9.38-11.46,4.2-11.46,9.38,5.13,9.37,11.46,9.37h0Z"/>
      <path d="M221.33,160.4c6.33,0,11.46-4.2,11.46-9.38s-5.13-9.37-11.46-9.37-11.46,4.2-11.46,9.37,5.13,9.38,11.46,9.38h0Z"/>
      <path d="M221.33,185.74c6.33,0,11.46-4.2,11.46-9.37s-5.13-9.38-11.46-9.38-11.46,4.2-11.46,9.38,5.13,9.37,11.46,9.37h0Z"/>
      <path d="M221.33,211.09c6.33,0,11.46-4.2,11.46-9.38s-5.13-9.37-11.46-9.37-11.46,4.2-11.46,9.37,5.13,9.38,11.46,9.38h0Z"/>
      <path d="M229.01,234.74c0,5.18,5.13,9.38,11.46,9.38s11.46-4.2,11.46-9.38-5.13-9.37-11.46-9.37-11.46,4.2-11.46,9.37h0Z"/>
      <path d="M288.61,237.12c0-5.18-5.13-9.37-11.46-9.37s-11.46,4.2-11.46,9.37,5.13,9.38,11.46,9.38,11.46-4.2,11.46-9.38h0Z"/>
      <path d="M294.41,213.08c-6.33,0-11.46,4.2-11.46,9.38s5.13,9.37,11.46,9.37,11.46-4.2,11.46-9.37-5.13-9.38-11.46-9.38h0Z"/>
      <path d="M257.87,225.36c6.33,0,11.46-4.2,11.46-9.37s-5.13-9.38-11.46-9.38-11.46,4.2-11.46,9.38,5.13,9.37,11.46,9.37h0Z"/>
      <path d="M274.85,190.11c6.33,0,11.46-4.2,11.46-9.38s-5.13-9.37-11.46-9.37-11.46,4.2-11.46,9.37,5.13,9.38,11.46,9.38h0Z"/>
      <path d="M260.67,194.85c0-5.18-5.13-9.37-11.46-9.37s-11.46,4.2-11.46,9.37,5.13,9.38,11.46,9.38,11.46-4.2,11.46-9.38h0Z"/>
      <path d="M248.82,177.76c6.33,0,11.46-4.2,11.46-9.37s-5.13-9.38-11.46-9.38-11.46,4.2-11.46,9.38,5.13,9.37,11.46,9.37h0Z"/>
      <path d="M225.76,234.17c3.93-4.96,3.81-11.59-.26-14.8s-10.53-1.78-14.46,3.18c-3.92,4.97-3.8,11.6.26,14.81,4.06,3.21,10.54,1.78,14.46-3.19h0Z"/>
      <path d="M293.33,202.27c0-5.18-5.13-9.38-11.46-9.38s-11.47,4.2-11.47,9.38,5.13,9.37,11.47,9.37,11.46-4.2,11.46-9.37h0Z"/>
      <path d="M230.65,304.02c6.33,0,11.46-4.2,11.46-9.37s-5.13-9.38-11.46-9.38-11.46,4.2-11.46,9.38,5.13,9.37,11.46,9.37h0Z"/>
      <path d="M261.24,304.02c6.33,0,11.46-4.2,11.46-9.37s-5.13-9.38-11.46-9.38-11.46,4.2-11.46,9.38,5.13,9.37,11.46,9.37h0Z"/>
      <path d="M292.27,304.02c6.33,0,11.46-4.2,11.46-9.37s-5.13-9.38-11.46-9.38-11.46,4.2-11.46,9.38,5.13,9.37,11.46,9.37h0Z"/>
      <path d="M319.37,313.4c6.33,0,11.46-4.2,11.46-9.37s-5.13-9.37-11.46-9.37-11.46,4.2-11.46,9.37,5.13,9.37,11.46,9.37h0Z"/>
      <path d="M319.37,337.44c6.33,0,11.46-4.2,11.46-9.37s-5.13-9.38-11.46-9.38-11.46,4.2-11.46,9.38,5.13,9.37,11.46,9.37h0Z"/>
      <path d="M299.61,353.61c0,5.18,5.13,9.37,11.46,9.37s11.46-4.2,11.46-9.37-5.13-9.37-11.46-9.37-11.46,4.2-11.46,9.37h0Z"/>
      <path d="M297.08,369.78c-6.33,0-11.46,4.2-11.46,9.37s5.13,9.38,11.46,9.38,11.46-4.2,11.46-9.38-5.13-9.37-11.46-9.37h0Z"/>
      <path d="M274.16,387.27c-6.33,0-11.46,4.2-11.46,9.37s5.13,9.38,11.46,9.38,11.46-4.2,11.46-9.38-5.13-9.37-11.46-9.37h0Z"/>
      <path d="M247.94,399.5c-6.33,0-11.46,4.2-11.46,9.38s5.13,9.37,11.46,9.37,11.46-4.2,11.46-9.37-5.13-9.38-11.46-9.38h0Z"/>
      <path d="M230.65,399.5c0-5.18-5.13-9.37-11.46-9.37s-11.46,4.2-11.46,9.37,5.13,9.38,11.46,9.38,11.46-4.2,11.46-9.38h0Z"/>
      <path d="M219.19,364.77c-6.33,0-11.46,4.2-11.46,9.38s5.13,9.37,11.46,9.37,11.46-4.2,11.46-9.37-5.13-9.38-11.46-9.38h0Z"/>
      <path d="M219.19,339.43c-6.33,0-11.46,4.2-11.46,9.37s5.13,9.37,11.46,9.37,11.46-4.2,11.46-9.37-5.13-9.37-11.46-9.37h0Z"/>
      <path d="M226.86,315.78c0,5.18,5.13,9.37,11.46,9.37s11.46-4.2,11.46-9.37-5.13-9.37-11.46-9.37-11.46,4.2-11.46,9.37h0Z"/>
      <path d="M263.55,313.4c0,5.18,5.13,9.38,11.46,9.38s11.46-4.2,11.46-9.38-5.13-9.37-11.46-9.37-11.46,4.2-11.46,9.37h0Z"/>
      <path d="M303.73,328.06c0-5.18-5.13-9.38-11.46-9.38s-11.46,4.2-11.46,9.38,5.13,9.37,11.46,9.37,11.46-4.2,11.46-9.37h0Z"/>
      <path d="M267.19,334.53c0-5.18-5.13-9.38-11.46-9.38s-11.46,4.2-11.46,9.38,5.13,9.37,11.46,9.37,11.46-4.2,11.46-9.37h0Z"/>
      <path d="M272.7,379.16c6.33,0,11.46-4.2,11.46-9.37s-5.13-9.37-11.46-9.37-11.46,4.2-11.46,9.37,5.13,9.37,11.46,9.37h0Z"/>
      <path d="M235.6,355.66c0,5.18,5.13,9.38,11.46,9.38s11.46-4.2,11.46-9.38-5.13-9.37-11.46-9.37-11.46,4.2-11.46,9.37h0Z"/>
      <path d="M246.68,391.52c6.33,0,11.46-4.2,11.46-9.37s-5.13-9.38-11.46-9.38-11.46,4.2-11.46,9.38,5.13,9.37,11.46,9.37h0Z"/>
      <path d="M223.36,329.84c4.07-3.21,4.18-9.83.26-14.8-3.93-4.97-10.4-6.39-14.46-3.18-4.06,3.21-4.18,9.83-.26,14.8,3.93,4.97,10.4,6.39,14.46,3.18h0Z"/>
      <path d="M268.26,348.25c0,5.18,5.13,9.37,11.46,9.37s11.46-4.2,11.46-9.37-5.13-9.38-11.46-9.38-11.46,4.2-11.46,9.38h0Z"/>
      <path d="M151.78,305.62c6.33,0,11.46-4.2,11.46-9.37s-5.13-9.38-11.46-9.38-11.46,4.2-11.46,9.38,5.13,9.37,11.46,9.37h0Z"/>
      <path d="M121.18,305.62c6.33,0,11.46-4.2,11.46-9.37s-5.13-9.38-11.46-9.38-11.46,4.2-11.46,9.38,5.13,9.37,11.46,9.37h0Z"/>
      <path d="M90.15,305.62c6.33,0,11.46-4.2,11.46-9.37s-5.13-9.38-11.46-9.38-11.46,4.2-11.46,9.38,5.13,9.37,11.46,9.37h0Z"/>
      <path d="M63.06,315c6.33,0,11.46-4.2,11.46-9.38s-5.13-9.37-11.46-9.37-11.46,4.2-11.46,9.37,5.13,9.38,11.46,9.38h0Z"/>
      <path d="M74.52,329.66c0-5.18-5.13-9.38-11.46-9.38s-11.46,4.2-11.46,9.38,5.13,9.37,11.46,9.37,11.46-4.2,11.46-9.37h0Z"/>
      <path d="M82.82,355.2c0-5.18-5.13-9.37-11.46-9.37s-11.46,4.2-11.46,9.37,5.13,9.38,11.46,9.38,11.46-4.2,11.46-9.38h0Z"/>
      <path d="M85.35,371.38c-6.33,0-11.46,4.2-11.46,9.38s5.13,9.37,11.46,9.37,11.46-4.2,11.46-9.37-5.13-9.38-11.46-9.38h0Z"/>
      <path d="M108.27,388.86c-6.33,0-11.46,4.2-11.46,9.37s5.13,9.38,11.46,9.38,11.46-4.2,11.46-9.38-5.13-9.37-11.46-9.37h0Z"/>
      <path d="M134.49,401.1c-6.33,0-11.46,4.2-11.46,9.37s5.13,9.37,11.46,9.37,11.46-4.2,11.46-9.37-5.13-9.37-11.46-9.37h0Z"/>
      <path d="M163.24,391.72c-6.33,0-11.46,4.2-11.46,9.38s5.13,9.37,11.46,9.37,11.46-4.2,11.46-9.37-5.13-9.38-11.46-9.38h0Z"/>
      <path d="M163.24,366.37c-6.33,0-11.46,4.2-11.46,9.38s5.13,9.37,11.46,9.37,11.46-4.2,11.46-9.37-5.13-9.38-11.46-9.38h0Z"/>
      <path d="M163.24,341.02c-6.33,0-11.46,4.2-11.46,9.37s5.13,9.38,11.46,9.38,11.46-4.2,11.46-9.38-5.13-9.37-11.46-9.37h0Z"/>
      <path d="M155.56,317.37c0-5.18-5.13-9.37-11.46-9.37s-11.46,4.2-11.46,9.37,5.13,9.38,11.46,9.38,11.46-4.2,11.46-9.38h0Z"/>
      <path d="M95.95,315c0,5.18,5.13,9.37,11.46,9.37s11.46-4.2,11.46-9.37-5.13-9.38-11.46-9.38-11.46,4.2-11.46,9.38h0Z"/>
      <path d="M90.15,339.03c6.33,0,11.46-4.2,11.46-9.37s-5.13-9.38-11.46-9.38-11.46,4.2-11.46,9.38,5.13,9.37,11.46,9.37h0Z"/>
      <path d="M126.69,326.75c-6.33,0-11.46,4.2-11.46,9.37s5.13,9.37,11.46,9.37,11.46-4.2,11.46-9.37-5.13-9.37-11.46-9.37h0Z"/>
      <path d="M109.72,362c-6.33,0-11.46,4.2-11.46,9.37s5.13,9.38,11.46,9.38,11.46-4.2,11.46-9.38-5.13-9.37-11.46-9.37h0Z"/>
      <path d="M123.9,357.26c0,5.18,5.13,9.37,11.46,9.37s11.46-4.2,11.46-9.37-5.13-9.38-11.46-9.38-11.46,4.2-11.46,9.38h0Z"/>
      <path d="M135.75,374.36c-6.33,0-11.46,4.2-11.46,9.37s5.13,9.37,11.46,9.37,11.46-4.2,11.46-9.37-5.13-9.37-11.46-9.37h0Z"/>
      <path d="M158.8,318.6c-3.93,4.97-3.81,11.6.26,14.81,4.06,3.21,10.54,1.78,14.46-3.19,3.92-4.96,3.81-11.59-.26-14.8-4.06-3.21-10.54-1.78-14.46,3.18h0Z"/>
      <path d="M91.25,349.85c0,5.18,5.13,9.38,11.46,9.38s11.46-4.2,11.46-9.38-5.13-9.37-11.46-9.37-11.46,4.2-11.46,9.37h0Z"/>
    </g>
  </g>
</svg>